<svg width="30" height="30" viewBox="0 0 30 30" fill="none" xmlns="http://www.w3.org/2000/svg">
<rect x="0.5" y="0.5" width="29" height="29" rx="14.5" stroke="#307BC4"/>
<path d="M20.5508 11.9062C20.5508 12.043 20.5508 12.1523 20.5508 12.2891C20.5508 16.0898 17.6797 20.4375 12.4023 20.4375C10.7617 20.4375 9.25781 19.9727 8 19.1523C8.21875 19.1797 8.4375 19.207 8.68359 19.207C10.0234 19.207 11.2539 18.7422 12.2383 17.9766C10.9805 17.9492 9.91406 17.1289 9.55859 15.9805C9.75 16.0078 9.91406 16.0352 10.1055 16.0352C10.3516 16.0352 10.625 15.9805 10.8438 15.9258C9.53125 15.6523 8.54688 14.5039 8.54688 13.1094V13.082C8.92969 13.3008 9.39453 13.4102 9.85938 13.4375C9.06641 12.918 8.57422 12.043 8.57422 11.0586C8.57422 10.5117 8.71094 10.0195 8.95703 9.60938C10.3789 11.332 12.5117 12.4805 14.8906 12.6172C14.8359 12.3984 14.8086 12.1797 14.8086 11.9609C14.8086 10.375 16.0938 9.08984 17.6797 9.08984C18.5 9.08984 19.2383 9.41797 19.7852 9.99219C20.4141 9.85547 21.043 9.60938 21.5898 9.28125C21.3711 9.96484 20.9336 10.5117 20.332 10.8672C20.9062 10.8125 21.4805 10.6484 21.9727 10.4297C21.5898 11.0039 21.0977 11.4961 20.5508 11.9062Z" fill="#307BC4"/>
</svg>
