<svg width="30" height="30" viewBox="0 0 30 30" fill="none" xmlns="http://www.w3.org/2000/svg">
<rect x="0.5" y="0.5" width="29" height="29" rx="14.5" stroke="#307BC4"/>
<path d="M11.6144 20H9.07141V11.8242H11.6144V20ZM10.3292 10.7305C9.53625 10.7305 8.88 10.0469 8.88 9.22656C8.88 8.43359 9.53625 7.77734 10.3292 7.77734C11.1495 7.77734 11.8058 8.43359 11.8058 9.22656C11.8058 10.0469 11.1495 10.7305 10.3292 10.7305ZM21.1027 20H18.587V16.0352C18.587 15.0781 18.5597 13.875 17.2472 13.875C15.9347 13.875 15.7433 14.8867 15.7433 15.9531V20H13.2003V11.8242H15.6339V12.9453H15.6613C16.0167 12.3164 16.837 11.6328 18.0675 11.6328C20.6378 11.6328 21.13 13.3281 21.13 15.5156V20H21.1027Z" fill="#307BC4"/>
</svg>
