<svg width="51" height="51" viewBox="0 0 51 51" fill="none" xmlns="http://www.w3.org/2000/svg">
<g clip-path="url(#clip0_91_1709)">
<path d="M22.6418 26.2863L27.2978 21.6303C26.2508 20.9619 25.0092 20.5728 23.6775 20.5728C19.956 20.5728 16.9282 23.6005 16.9282 27.3221C16.9282 31.0437 19.956 34.0714 23.6775 34.0714C27.3991 34.0714 30.4269 31.0437 30.4269 27.3221C30.4269 25.9905 30.0377 24.7488 29.3693 23.7018L24.7133 28.3578L22.6418 26.2863Z" fill="#FAFAFA"/>
<path d="M46.8557 27.3221C46.8557 23.3415 45.8388 19.4487 43.9081 16.0037L38.1368 16.7945C40.2951 19.7506 41.5711 23.3899 41.5711 27.3221C41.5711 37.1885 33.5442 45.2155 23.6777 45.2155C13.8112 45.2155 5.78447 37.1885 5.78447 27.3221C5.78447 17.4557 13.8114 9.42886 23.6778 9.42886C27.6101 9.42886 31.2493 10.7048 34.2055 12.8631L34.9963 7.09185C31.5513 5.16118 27.6585 4.14429 23.6778 4.14429C17.4868 4.14429 11.6663 6.55522 7.28867 10.933C2.91094 15.3106 0.5 21.1311 0.5 27.3221C0.5 33.5131 2.91094 39.3336 7.28867 43.7113C11.6663 48.0891 17.4867 50.5 23.6778 50.5C29.8689 50.5 35.6894 48.089 40.067 43.7113C44.4447 39.3336 46.8557 33.5132 46.8557 27.3221Z" fill="#FAFAFA"/>
<path d="M23.678 12.3586C15.4271 12.3586 8.71436 19.0712 8.71436 27.3223C8.71436 35.5733 15.427 42.2859 23.678 42.2859C31.9291 42.2859 38.6417 35.5733 38.6417 27.3223C38.6417 23.7231 37.3642 20.417 35.2392 17.8327L31.4762 21.5957C32.6578 23.2004 33.3571 25.1811 33.3571 27.3223C33.3571 32.6593 29.0151 37.0013 23.6781 37.0013C18.3411 37.0013 13.9991 32.6593 13.9991 27.3223C13.9991 21.9853 18.3411 17.6433 23.6781 17.6433C25.8193 17.6433 27.7999 18.3426 29.4047 19.5242L33.1677 15.7612C30.5833 13.636 27.2771 12.3586 23.678 12.3586ZM44.4755 0.5L37.9646 7.01084L37.0079 13.9923L43.9894 13.0355L50.5002 6.52471L46.1055 4.89473L44.4755 0.5Z" fill="#FAFAFA"/>
</g>
<defs>
<clipPath id="clip0_91_1709">
<rect width="50" height="50" fill="white" transform="translate(0.5 0.5)"/>
</clipPath>
</defs>
</svg>
