<svg width="50" height="51" viewBox="0 0 50 51" fill="none" xmlns="http://www.w3.org/2000/svg">
<g clip-path="url(#clip0_91_1746)">
<path d="M42.9761 18.1892C41.9787 17.3661 40.9769 16.6055 39.9743 15.9082C41.6478 18.6022 42.6159 21.778 42.6159 25.176C42.6159 28.5741 41.6478 31.7498 39.9743 34.4438C40.9769 33.7465 41.9787 32.9858 42.9761 32.1628C46.3498 29.3792 48.8462 26.5622 50 25.176C48.8464 23.7902 46.3499 20.9731 42.9761 18.1892ZM7.02387 18.1892C3.65025 20.9728 1.15383 23.7898 0 25.176C1.15383 26.5622 3.65025 29.3792 7.02387 32.1628C8.0213 32.9859 9.02313 33.7465 10.0257 34.4438C8.35218 31.7497 7.38407 28.5741 7.38407 25.176C7.38407 21.778 8.35218 18.6023 10.0257 15.9082C9.02313 16.6055 8.0213 17.3661 7.02387 18.1892ZM28.0983 5.88911L28.5598 2.99309C27.3824 2.80581 26.1922 2.71155 25 2.71118C23.8079 2.71154 22.6177 2.8058 21.4403 2.99309L21.9018 5.88911C23.9545 5.56341 26.0456 5.56341 28.0983 5.88911ZM15.2338 8.2605C16.1327 7.74201 17.0709 7.29508 18.0399 6.92388L16.9914 4.18514C15.8781 4.61168 14.8002 5.12518 13.7676 5.72088C12.7354 6.31725 11.7517 6.99401 10.8258 7.74488L12.6734 10.0221C13.4793 9.36861 14.3354 8.77957 15.2338 8.2605ZM12.6734 40.3298L10.8258 42.607C11.7518 43.3579 12.7354 44.0347 13.7677 44.631C14.8003 45.2267 15.8782 45.7402 16.9914 46.1668L18.0399 43.428C17.071 43.0568 16.1327 42.6099 15.2339 42.0914C14.3355 41.5724 13.4793 40.9833 12.6734 40.3298ZM21.9016 44.4628L21.4404 47.3588C22.6177 47.5461 23.8079 47.6403 25 47.6407C26.188 47.6407 27.3856 47.5458 28.5598 47.3588L28.0983 44.4628C26.0456 44.7884 23.9543 44.7884 21.9016 44.4628ZM34.7662 42.0914C33.8674 42.6099 32.9291 43.0569 31.9601 43.428L33.0086 46.1668C34.1218 45.7403 35.1997 45.2268 36.2323 44.631C37.2646 44.0347 38.2482 43.3579 39.1742 42.607L37.3267 40.3298C36.5208 40.9833 35.6646 41.5723 34.7662 42.0914ZM37.3267 10.0221L39.1742 7.74488C38.2482 6.99395 37.2645 6.31719 36.2322 5.72088C35.1996 5.12512 34.1218 4.61162 33.0085 4.18514L31.9601 6.92388C32.9291 7.29504 33.8673 7.74197 34.7661 8.2605C35.6646 8.77956 36.5208 9.3686 37.3267 10.0221ZM41.6489 36.8511L40.4116 37.7119L42.4311 39.3502C43.182 38.4243 43.8588 37.4406 44.4551 36.4083C44.9785 35.5009 45.4386 34.5584 45.832 33.5875C45.5056 33.8706 45.1757 34.1497 44.8425 34.4246C43.7925 35.291 42.7181 36.1073 41.6489 36.8511ZM44.8425 15.9273C45.1757 16.2023 45.5055 16.4814 45.832 16.7645C45.4386 15.7936 44.9786 14.851 44.4551 13.9436C43.8587 12.9114 43.1819 11.9277 42.4311 11.0018L40.4116 12.6402L41.6489 13.5009C42.7181 14.2446 43.7925 15.0609 44.8425 15.9273ZM5.15754 34.4246C4.82434 34.1496 4.49448 33.8705 4.16803 33.5875C4.56138 34.5584 5.02144 35.5009 5.54492 36.4083C6.14128 37.4406 6.81804 38.4243 7.56892 39.3502L9.58842 37.7119L8.35111 36.8511C7.28193 36.1073 6.20747 35.291 5.15754 34.4246ZM8.35101 13.5008L9.58832 12.6401L7.56882 11.0017C6.81792 11.9276 6.14116 12.9113 5.54482 13.9435C5.02138 14.851 4.56132 15.7935 4.16793 16.7644C4.49436 16.4813 4.82422 16.2022 5.15744 15.9272C6.20747 15.0609 7.28193 14.2446 8.35101 13.5008ZM25 10.4939C16.8913 10.4939 10.3179 17.0672 10.3179 25.1759C10.3179 33.2846 16.8913 39.8579 25 39.8579C33.1086 39.8579 39.682 33.2846 39.682 25.1759C39.682 17.0672 33.1086 10.4939 25 10.4939ZM33.4066 27.5639H30.4741V23.9879L24.8245 29.6375L22.5015 27.3144L18.4031 31.4128L16.3295 29.3392L22.5015 23.1673L24.8245 25.4904L28.4006 21.9143H24.8245V18.9818H33.4066V27.5639Z" fill="white"/>
</g>
<defs>
<clipPath id="clip0_91_1746">
<rect width="50" height="50" fill="white" transform="translate(0 0.176025)"/>
</clipPath>
</defs>
</svg>
