<svg width="28" height="25" viewBox="0 0 28 25" fill="none" xmlns="http://www.w3.org/2000/svg">
<path opacity="0.5" d="M25.1419 12.5965C26.5507 12.5965 27.7428 13.7885 27.7428 15.1973V22.133C27.7428 23.596 26.5507 24.7339 25.1419 24.7339H18.2062C16.7432 24.7339 15.6053 23.596 15.6053 22.133V9.12862C15.6053 4.36033 19.4524 0.459005 24.2749 0.459005H24.7084C25.4128 0.459005 26.0088 1.05504 26.0088 1.75945V4.36033C26.0088 5.11892 25.4128 5.66077 24.7084 5.66077H24.2749C22.3243 5.66077 20.8071 7.23214 20.8071 9.12862V12.5965H25.1419ZM9.53657 12.5965C10.9454 12.5965 12.1375 13.7885 12.1375 15.1973V22.133C12.1375 23.596 10.9454 24.7339 9.53657 24.7339H2.60088C1.13789 24.7339 0 23.596 0 22.133V9.12862C0 4.36033 3.84714 0.459005 8.66961 0.459005H9.10309C9.8075 0.459005 10.4035 1.05504 10.4035 1.75945V4.36033C10.4035 5.11892 9.8075 5.66077 9.10309 5.66077H8.66961C6.71895 5.66077 5.20177 7.23214 5.20177 9.12862V12.5965H9.53657Z" fill="#307BC4"/>
</svg>
