<svg width="10" height="18" viewBox="0 0 10 18" fill="none" xmlns="http://www.w3.org/2000/svg">
<path d="M2.888 10.1442H0.709999C0.357999 10.1442 0.247999 10.0122 0.247999 9.68217V7.02017C0.247999 6.66817 0.379999 6.55817 0.709999 6.55817H2.888V4.62217C2.888 3.74217 3.042 2.90617 3.482 2.13617C3.944 1.34417 4.604 0.816168 5.44 0.508168C5.99 0.310168 6.54 0.222168 7.134 0.222168H9.29C9.598 0.222168 9.73 0.354168 9.73 0.662168V3.17017C9.73 3.47817 9.598 3.61017 9.29 3.61017C8.696 3.61017 8.102 3.61017 7.508 3.63217C6.914 3.63217 6.606 3.91817 6.606 4.53417C6.584 5.19417 6.606 5.83217 6.606 6.51417H9.158C9.51 6.51417 9.642 6.64617 9.642 6.99817V9.66017C9.642 10.0122 9.532 10.1222 9.158 10.1222H6.606V17.2942C6.606 17.6682 6.496 17.8002 6.1 17.8002H3.35C3.02 17.8002 2.888 17.6682 2.888 17.3382V10.1442Z" fill="#064681"/>
</svg>
