<svg width="18" height="18" viewBox="0 0 18 18" fill="none" xmlns="http://www.w3.org/2000/svg">
<path d="M17.7956 17.8002V17.7995H17.8V11.3447C17.8 8.18708 17.1202 5.75454 13.4286 5.75454C11.6539 5.75454 10.463 6.72847 9.9768 7.65159H9.92554V6.04934H6.42534V17.7995H10.0701V11.9812C10.0701 10.4493 10.3605 8.96785 12.2575 8.96785C14.1269 8.96785 14.1546 10.7162 14.1546 12.0793V17.8002H17.7956ZM0.490397 6.04999H4.13954V17.8002H0.490397V6.04999ZM2.31354 0.200195C1.14666 0.200195 0.199997 1.14686 0.199997 2.31374C0.199997 3.48062 1.14666 4.44708 2.31354 4.44708C3.48042 4.44708 4.42708 3.48062 4.42708 2.31374C4.4262 1.14686 3.47954 0.200195 2.31354 0.200195Z" fill="#064681"/>
</svg>
