<svg width="16" height="12" viewBox="0 0 16 12" fill="none" xmlns="http://www.w3.org/2000/svg">
<path fill-rule="evenodd" clip-rule="evenodd" d="M1.96282 1.0728L6.28532 5.39718C7.22807 6.33812 8.76913 6.33893 9.71266 5.39718L14.0352 1.0728C14.0454 1.06264 14.0532 1.05036 14.0582 1.03682C14.0631 1.02328 14.065 1.00882 14.0638 0.994466C14.0625 0.98011 14.0581 0.966209 14.0508 0.953749C14.0436 0.941289 14.0337 0.930575 14.0218 0.922367C13.581 0.614899 13.0446 0.432617 12.4668 0.432617H3.53126C2.95341 0.432617 2.41701 0.61493 1.97613 0.922367C1.96429 0.930575 1.95439 0.941289 1.94715 0.953749C1.9399 0.966209 1.93549 0.98011 1.93422 0.994466C1.93295 1.00882 1.93485 1.02328 1.9398 1.03682C1.94474 1.05036 1.9526 1.06264 1.96282 1.0728ZM0.807694 3.15615C0.807342 2.71677 0.914124 2.28392 1.11879 1.89512C1.12593 1.88141 1.13621 1.86958 1.14879 1.86059C1.16136 1.85161 1.17588 1.84571 1.19116 1.84339C1.20645 1.84107 1.22206 1.84239 1.23674 1.84724C1.25142 1.85209 1.26474 1.86034 1.27563 1.8713L5.54341 6.13909C6.89488 7.49252 9.10232 7.4933 10.4546 6.13909L14.7224 1.8713C14.7333 1.86034 14.7466 1.85209 14.7613 1.84724C14.776 1.84239 14.7916 1.84107 14.8068 1.84339C14.8221 1.84571 14.8366 1.85161 14.8492 1.86059C14.8618 1.86958 14.8721 1.88141 14.8792 1.89512C15.0839 2.28393 15.1907 2.71677 15.1903 3.15615V8.84168C15.1903 10.3446 13.9678 11.5652 12.4668 11.5652H3.53126C2.03026 11.5652 0.807694 10.3446 0.807694 8.84168V3.15615Z" fill="#064681"/>
</svg>
