<svg width="40" height="40" viewBox="0 0 40 40" fill="none" xmlns="http://www.w3.org/2000/svg">
<g clip-path="url(#clip0_11_785)">
<path d="M34.1912 5.80871C26.315 -1.99037 13.6078 -1.92795 5.8087 5.94821C-1.93623 13.7697 -1.93623 26.3698 5.8087 34.1914C13.6849 41.9904 26.3922 41.928 34.1912 34.0518C41.9361 26.2304 41.9361 13.6302 34.1912 5.80871ZM20 38.457C9.82264 38.457 1.54294 30.1774 1.54294 20C1.54294 9.82256 9.82256 1.54304 20 1.54304C30.1774 1.54304 38.457 9.82272 38.457 20.0001C38.457 30.1774 30.1773 38.457 20 38.457Z" fill="#274760"/>
<path d="M30.8797 19.3011V19.3021L14.5846 9.89429C14.199 9.67165 13.7058 9.80373 13.4831 10.1895C13.4124 10.312 13.3751 10.4509 13.3751 10.5923V29.4077C13.3753 29.853 13.7366 30.214 14.1818 30.2137C14.3233 30.2136 14.4622 30.1764 14.5847 30.1056L30.8798 20.6979C31.2655 20.4753 31.3977 19.9821 31.1751 19.5964C31.1042 19.4737 31.0024 19.3719 30.8797 19.3011Z" fill="#274760"/>
</g>
<defs>
<clipPath id="clip0_11_785">
<rect width="40" height="40" fill="white"/>
</clipPath>
</defs>
</svg>
