<?xml version="1.0" encoding="UTF-8"?>
<svg version="1.1" xmlns="http://www.w3.org/2000/svg" width="18" height="16">
<path d="M0 0 C1.0725 0.2475 2.145 0.495 3.25 0.75 C2.33232796 5.33836019 0.59726259 9.72910611 -2 13.625 C-4.82549284 15.44138825 -7.44164838 15.57587623 -10.75 15.75 C-13.1875 14.8125 -13.1875 14.8125 -14.75 13.75 C-13.76 13.09 -12.77 12.43 -11.75 11.75 C-12.265625 10.863125 -12.78125 9.97625 -13.3125 9.0625 C-14.8368937 5.54976669 -14.89947895 4.30293493 -13.75 0.75 C-11.77 1.74 -9.79 2.73 -7.75 3.75 C-7.234375 3.069375 -6.71875 2.38875 -6.1875 1.6875 C-3.75 -0.25 -3.75 -0.25 0 0 Z " fill="#054580" transform="translate(14.75,0.25)"/>
</svg>
