<svg width="18" height="18" viewBox="0 0 18 18" fill="none" xmlns="http://www.w3.org/2000/svg">
<path d="M9 0.129883C4.138 0.129883 0.200001 4.06788 0.200001 8.92988C0.200001 10.8659 0.816001 12.6479 1.872 14.0999L0.662001 17.2899L4.16 16.2779C5.546 17.2019 7.218 17.7299 9 17.7299C13.862 17.7299 17.8 13.7919 17.8 8.92988C17.8 4.06788 13.862 0.129883 9 0.129883ZM13.686 12.5819L12.74 13.5059C11.75 14.4959 9.132 13.4179 6.822 11.0859C4.512 8.77588 3.478 6.15788 4.402 5.18988L5.348 4.24388C5.7 3.89188 6.294 3.89188 6.668 4.24388L8.054 5.62988C8.538 6.11388 8.34 6.94988 7.702 7.14788C7.262 7.30188 6.954 7.78588 7.108 8.22588C7.35 9.25988 8.692 10.5359 9.682 10.7779C10.122 10.8879 10.628 10.6239 10.76 10.1839C10.958 9.54588 11.794 9.34788 12.278 9.83188L13.664 11.2179C14.016 11.5919 14.016 12.1859 13.686 12.5819Z" fill="#064681"/>
</svg>
